<svg xmlns="http://www.w3.org/2000/svg" xmlns:xlink="http://www.w3.org/1999/xlink" width="500" zoomAndPan="magnify" viewBox="0 0 375 374.999991" height="500" preserveAspectRatio="xMidYMid meet" version="1.0"><defs><g/></defs><g fill="#000000" fill-opacity="1"><g transform="translate(22.056157, 208.839805)"><g><path d="M 54.09375 -49.375 C 52.9375 -45.519531 52.023438 -41.453125 51.359375 -37.171875 C 50.691406 -32.898438 50.359375 -28.429688 50.359375 -23.765625 C 50.359375 -19.585938 50.632812 -15.476562 51.1875 -11.4375 C 51.75 -7.40625 52.660156 -3.59375 53.921875 0 C 53.035156 0.144531 51.960938 0.273438 50.703125 0.390625 C 49.441406 0.503906 48.238281 0.578125 47.09375 0.609375 C 45.945312 0.648438 45.054688 0.671875 44.421875 0.671875 C 39.796875 0.671875 36.03125 0.335938 33.125 -0.328125 C 30.21875 -0.992188 28.085938 -2.113281 26.734375 -3.6875 C 25.390625 -5.257812 24.71875 -7.414062 24.71875 -10.15625 C 24.71875 -10.5625 24.734375 -10.953125 24.765625 -11.328125 C 24.804688 -11.703125 24.84375 -12.070312 24.875 -12.4375 L 23.4375 -12.4375 C 22.875 -9.8125 21.816406 -7.515625 20.265625 -5.546875 C 18.710938 -3.585938 16.816406 -2.0625 14.578125 -0.96875 C 12.335938 0.125 9.921875 0.671875 7.328125 0.671875 C 6.398438 0.671875 5.34375 0.59375 4.15625 0.4375 C 2.976562 0.289062 1.960938 0.144531 1.109375 0 C 2.253906 -3.738281 3.140625 -7.78125 3.765625 -12.125 C 4.398438 -16.476562 4.71875 -20.988281 4.71875 -25.65625 C 4.71875 -29.84375 4.4375 -33.953125 3.875 -37.984375 C 3.320312 -42.015625 2.421875 -45.8125 1.171875 -49.375 L 16.828125 -49.375 C 17.929688 -47.21875 18.722656 -45.1875 19.203125 -43.28125 C 19.691406 -41.375 19.9375 -39.550781 19.9375 -37.8125 C 19.9375 -35.144531 19.472656 -32.703125 18.546875 -30.484375 C 17.617188 -28.265625 16.5 -26.253906 15.1875 -24.453125 C 13.875 -22.660156 12.609375 -21.023438 11.390625 -19.546875 C 10.347656 -18.285156 9.460938 -17.15625 8.734375 -16.15625 C 8.015625 -15.15625 7.65625 -14.175781 7.65625 -13.21875 C 7.65625 -12.40625 7.867188 -11.820312 8.296875 -11.46875 C 8.722656 -11.113281 9.253906 -10.9375 9.890625 -10.9375 C 10.890625 -10.9375 12.117188 -11.210938 13.578125 -11.765625 C 15.035156 -12.328125 16.550781 -13.160156 18.125 -14.265625 C 19.695312 -15.378906 21.164062 -16.796875 22.53125 -18.515625 C 23.90625 -20.242188 25.019531 -22.269531 25.875 -24.59375 C 26.726562 -26.925781 27.15625 -29.578125 27.15625 -32.546875 C 27.15625 -35.054688 26.8125 -37.71875 26.125 -40.53125 C 25.4375 -43.351562 24.300781 -46.300781 22.71875 -49.375 L 36.421875 -49.375 C 37.316406 -47.664062 38.050781 -45.828125 38.625 -43.859375 C 39.195312 -41.898438 39.484375 -39.882812 39.484375 -37.8125 C 39.484375 -35.144531 39.019531 -32.703125 38.09375 -30.484375 C 37.164062 -28.265625 36.046875 -26.253906 34.734375 -24.453125 C 33.421875 -22.660156 32.15625 -21.023438 30.9375 -19.546875 C 29.894531 -18.285156 29.007812 -17.15625 28.28125 -16.15625 C 27.5625 -15.15625 27.203125 -14.175781 27.203125 -13.21875 C 27.203125 -12.40625 27.414062 -11.820312 27.84375 -11.46875 C 28.269531 -11.113281 28.816406 -10.9375 29.484375 -10.9375 C 30.484375 -10.9375 31.710938 -11.210938 33.171875 -11.765625 C 34.640625 -12.328125 36.148438 -13.160156 37.703125 -14.265625 C 39.253906 -15.378906 40.710938 -16.796875 42.078125 -18.515625 C 43.453125 -20.242188 44.566406 -22.269531 45.421875 -24.59375 C 46.273438 -26.925781 46.703125 -29.578125 46.703125 -32.546875 C 46.703125 -35.054688 46.335938 -37.65625 45.609375 -40.34375 C 44.890625 -43.03125 43.660156 -46.039062 41.921875 -49.375 Z M 54.09375 -49.375 "/></g></g></g><g fill="#000000" fill-opacity="1"><g transform="translate(80.542623, 209.228859)"><g><path d="M 0.484375 -28.671875 C 1.972656 -30.453125 3.765625 -31.804688 5.859375 -32.734375 C 7.960938 -33.660156 10.367188 -34.125 13.078125 -34.125 C 15.367188 -34.125 17.554688 -33.820312 19.640625 -33.21875 C 21.722656 -32.613281 23.570312 -31.703125 25.1875 -30.484375 C 26.8125 -29.273438 28.101562 -27.785156 29.0625 -26.015625 C 30.019531 -24.253906 30.5 -22.195312 30.5 -19.84375 L 30.5 -10.265625 C 30.5 -9.367188 30.578125 -8.472656 30.734375 -7.578125 C 30.890625 -6.691406 31.226562 -5.953125 31.75 -5.359375 C 32.28125 -4.773438 33.117188 -4.484375 34.265625 -4.484375 L 34.265625 -4.25 C 33.335938 -3.769531 32.363281 -3.242188 31.34375 -2.671875 C 30.332031 -2.097656 29.359375 -1.554688 28.421875 -1.046875 C 27.484375 -0.535156 26.65625 -0.113281 25.9375 0.21875 C 25.21875 0.550781 24.71875 0.71875 24.4375 0.71875 C 23.632812 0.71875 22.953125 0.382812 22.390625 -0.28125 C 21.835938 -0.945312 21.414062 -1.78125 21.125 -2.78125 C 20.84375 -3.789062 20.703125 -4.769531 20.703125 -5.71875 L 20.703125 -10.78125 C 20.097656 -9.832031 19.421875 -8.785156 18.671875 -7.640625 C 17.929688 -6.492188 17.21875 -5.378906 16.53125 -4.296875 C 15.851562 -3.210938 15.273438 -2.304688 14.796875 -1.578125 C 14.566406 -1.191406 13.972656 -0.710938 13.015625 -0.140625 C 12.066406 0.429688 10.941406 0.71875 9.640625 0.71875 C 7.671875 0.71875 6.0625 0.320312 4.8125 -0.46875 C 3.570312 -1.269531 2.671875 -2.328125 2.109375 -3.640625 C 1.554688 -4.960938 1.28125 -6.4375 1.28125 -8.0625 C 1.28125 -9.75 1.671875 -11.316406 2.453125 -12.765625 C 3.234375 -14.210938 4.289062 -15.484375 5.625 -16.578125 C 6.96875 -17.679688 8.476562 -18.539062 10.15625 -19.15625 C 11.84375 -19.78125 13.609375 -20.09375 15.453125 -20.09375 C 17.335938 -20.09375 19.007812 -19.757812 20.46875 -19.09375 C 20.050781 -20.96875 19.195312 -22.4375 17.90625 -23.5 C 16.625 -24.5625 15.046875 -25.09375 13.171875 -25.09375 C 11.453125 -25.09375 9.914062 -24.773438 8.5625 -24.140625 C 7.207031 -23.503906 6.085938 -22.503906 5.203125 -21.140625 C 4.441406 -22.628906 3.691406 -23.9375 2.953125 -25.0625 C 2.222656 -26.195312 1.398438 -27.398438 0.484375 -28.671875 Z M 11.453125 -11.734375 C 11.453125 -10.972656 11.707031 -10.257812 12.21875 -9.59375 C 12.726562 -8.925781 13.617188 -8.59375 14.890625 -8.59375 C 16.003906 -8.59375 17.078125 -8.941406 18.109375 -9.640625 C 19.140625 -10.335938 20.003906 -11.289062 20.703125 -12.5 L 20.703125 -16.75 C 20.703125 -17 20.691406 -17.257812 20.671875 -17.53125 C 20.660156 -17.800781 20.640625 -18.050781 20.609375 -18.28125 C 20.328125 -18.4375 20.019531 -18.550781 19.6875 -18.625 C 19.351562 -18.707031 18.992188 -18.75 18.609375 -18.75 C 17.273438 -18.75 16.066406 -18.367188 14.984375 -17.609375 C 13.898438 -16.847656 13.039062 -15.925781 12.40625 -14.84375 C 11.769531 -13.757812 11.453125 -12.722656 11.453125 -11.734375 Z M 11.453125 -11.734375 "/></g></g></g><g fill="#000000" fill-opacity="1"><g transform="translate(113.365157, 209.228859)"><g><path d="M -1.90625 -28.53125 L -1.90625 -28.78125 C -0.726562 -28.84375 0.53125 -29.054688 1.875 -29.421875 C 3.226562 -29.785156 4.566406 -30.242188 5.890625 -30.796875 C 7.210938 -31.359375 8.453125 -31.929688 9.609375 -32.515625 C 10.773438 -33.109375 11.753906 -33.644531 12.546875 -34.125 L 12.546875 -23.140625 L 17.421875 -32.875 C 18.054688 -33.226562 18.726562 -33.523438 19.4375 -33.765625 C 20.15625 -34.003906 20.960938 -34.125 21.859375 -34.125 C 24.878906 -34.125 27.265625 -33.238281 29.015625 -31.46875 C 30.765625 -29.707031 31.640625 -27.03125 31.640625 -23.4375 L 31.640625 -5.96875 C 31.640625 -4.789062 31.78125 -3.617188 32.0625 -2.453125 C 32.351562 -1.296875 32.769531 -0.476562 33.3125 0 L 20.1875 0 C 20.726562 -0.476562 21.140625 -1.289062 21.421875 -2.4375 C 21.710938 -3.582031 21.859375 -4.742188 21.859375 -5.921875 L 21.859375 -21.046875 C 21.859375 -22.566406 21.457031 -23.738281 20.65625 -24.5625 C 19.863281 -25.394531 18.878906 -25.8125 17.703125 -25.8125 C 16.203125 -25.8125 15.054688 -25.332031 14.265625 -24.375 C 13.472656 -23.425781 12.898438 -22.394531 12.546875 -21.28125 L 12.546875 -5.96875 C 12.546875 -4.789062 12.6875 -3.617188 12.96875 -2.453125 C 13.257812 -1.296875 13.675781 -0.476562 14.21875 0 L 1.09375 0 C 1.632812 -0.476562 2.046875 -1.289062 2.328125 -2.4375 C 2.617188 -3.582031 2.765625 -4.742188 2.765625 -5.921875 L 2.765625 -21.71875 C 2.765625 -22.0625 2.734375 -22.597656 2.671875 -23.328125 C 2.609375 -24.066406 2.429688 -24.832031 2.140625 -25.625 C 1.859375 -26.414062 1.398438 -27.097656 0.765625 -27.671875 C 0.128906 -28.242188 -0.757812 -28.53125 -1.90625 -28.53125 Z M -1.90625 -28.53125 "/></g></g></g><g fill="#000000" fill-opacity="1"><g transform="translate(147.618902, 209.228859)"><g><path d="M 12.171875 0.71875 C 10.296875 0.71875 8.679688 0.191406 7.328125 -0.859375 C 5.972656 -1.910156 4.859375 -3.296875 3.984375 -5.015625 C 3.109375 -6.734375 2.460938 -8.609375 2.046875 -10.640625 C 1.640625 -12.671875 1.4375 -14.691406 1.4375 -16.703125 C 1.4375 -18.765625 1.6875 -20.820312 2.1875 -22.875 C 2.695312 -24.925781 3.507812 -26.800781 4.625 -28.5 C 5.738281 -30.207031 7.191406 -31.570312 8.984375 -32.59375 C 10.785156 -33.613281 12.976562 -34.125 15.5625 -34.125 C 16.738281 -34.125 17.769531 -33.953125 18.65625 -33.609375 C 19.550781 -33.273438 20.347656 -32.84375 21.046875 -32.3125 L 21.046875 -36.03125 C 21.046875 -36.375 21.015625 -36.910156 20.953125 -37.640625 C 20.890625 -38.378906 20.710938 -39.144531 20.421875 -39.9375 C 20.140625 -40.738281 19.675781 -41.421875 19.03125 -41.984375 C 18.394531 -42.554688 17.507812 -42.84375 16.375 -42.84375 L 16.375 -43.09375 C 17.550781 -43.15625 18.8125 -43.367188 20.15625 -43.734375 C 21.507812 -44.097656 22.847656 -44.554688 24.171875 -45.109375 C 25.492188 -45.671875 26.734375 -46.242188 27.890625 -46.828125 C 29.054688 -47.421875 30.035156 -47.957031 30.828125 -48.4375 L 30.828125 -5.875 C 30.828125 -4.695312 30.96875 -3.539062 31.25 -2.40625 C 31.539062 -1.28125 31.957031 -0.476562 32.5 0 L 21.046875 0 L 21.046875 -10.6875 L 17.328125 -1.140625 C 16.753906 -0.566406 16.03125 -0.113281 15.15625 0.21875 C 14.28125 0.550781 13.285156 0.71875 12.171875 0.71875 Z M 11.125 -15.84375 C 11.125 -10.84375 12.617188 -8.34375 15.609375 -8.34375 C 16.972656 -8.34375 18.082031 -8.734375 18.9375 -9.515625 C 19.800781 -10.296875 20.503906 -11.226562 21.046875 -12.3125 L 21.046875 -25.34375 C 20.285156 -25.5625 19.441406 -25.671875 18.515625 -25.671875 C 16.890625 -25.671875 15.523438 -25.191406 14.421875 -24.234375 C 13.328125 -23.285156 12.503906 -22.0625 11.953125 -20.5625 C 11.398438 -19.070312 11.125 -17.5 11.125 -15.84375 Z M 11.125 -15.84375 "/></g></g></g><g fill="#000000" fill-opacity="1"><g transform="translate(181.061623, 209.228859)"><g><path d="M 17.9375 0.71875 C 15.144531 0.71875 12.703125 0.257812 10.609375 -0.65625 C 8.523438 -1.582031 6.804688 -2.847656 5.453125 -4.453125 C 4.109375 -6.066406 3.101562 -7.921875 2.4375 -10.015625 C 1.769531 -12.117188 1.4375 -14.347656 1.4375 -16.703125 C 1.4375 -19.054688 1.785156 -21.28125 2.484375 -23.375 C 3.179688 -25.476562 4.238281 -27.332031 5.65625 -28.9375 C 7.070312 -30.539062 8.835938 -31.804688 10.953125 -32.734375 C 13.066406 -33.660156 15.554688 -34.125 18.421875 -34.125 C 20.835938 -34.125 22.953125 -33.617188 24.765625 -32.609375 C 26.578125 -31.609375 27.984375 -30.320312 28.984375 -28.75 C 29.992188 -27.175781 30.5 -25.546875 30.5 -23.859375 C 30.5 -22.265625 30.078125 -20.71875 29.234375 -19.21875 C 28.390625 -17.726562 27.003906 -16.515625 25.078125 -15.578125 C 23.148438 -14.640625 20.550781 -14.171875 17.28125 -14.171875 L 11.6875 -14.171875 C 12.070312 -12.484375 12.835938 -11.160156 13.984375 -10.203125 C 15.128906 -9.253906 16.59375 -8.78125 18.375 -8.78125 C 19.550781 -8.78125 20.5625 -9.019531 21.40625 -9.5 C 22.25 -9.976562 22.945312 -10.523438 23.5 -11.140625 C 24.0625 -11.765625 24.453125 -12.28125 24.671875 -12.6875 C 25.460938 -11.445312 26.398438 -10.242188 27.484375 -9.078125 C 28.566406 -7.921875 29.601562 -6.898438 30.59375 -6.015625 C 29.1875 -3.785156 27.347656 -2.101562 25.078125 -0.96875 C 22.804688 0.15625 20.425781 0.71875 17.9375 0.71875 Z M 11.59375 -14.703125 C 13.125 -14.984375 14.601562 -15.484375 16.03125 -16.203125 C 17.46875 -16.921875 18.65625 -17.816406 19.59375 -18.890625 C 20.53125 -19.972656 21 -21.203125 21 -22.578125 C 21 -23.210938 20.773438 -23.832031 20.328125 -24.4375 C 19.878906 -25.039062 19.148438 -25.34375 18.140625 -25.34375 C 17.210938 -25.34375 16.226562 -25.015625 15.1875 -24.359375 C 14.15625 -23.703125 13.273438 -22.726562 12.546875 -21.4375 C 11.816406 -20.15625 11.453125 -18.578125 11.453125 -16.703125 C 11.453125 -16.003906 11.5 -15.335938 11.59375 -14.703125 Z M 11.59375 -14.703125 "/></g></g></g><g fill="#000000" fill-opacity="1"><g transform="translate(212.596056, 209.228859)"><g><path d="M -1.90625 -28.78125 C -0.726562 -28.84375 0.53125 -29.054688 1.875 -29.421875 C 3.226562 -29.785156 4.566406 -30.242188 5.890625 -30.796875 C 7.210938 -31.359375 8.453125 -31.929688 9.609375 -32.515625 C 10.773438 -33.109375 11.753906 -33.644531 12.546875 -34.125 L 12.546875 -24.765625 C 12.773438 -25.816406 13.132812 -26.890625 13.625 -27.984375 C 14.113281 -29.085938 14.734375 -30.097656 15.484375 -31.015625 C 16.234375 -31.941406 17.113281 -32.691406 18.125 -33.265625 C 19.144531 -33.835938 20.273438 -34.125 21.515625 -34.125 C 22.472656 -34.125 23.40625 -33.9375 24.3125 -33.5625 C 25.21875 -33.195312 25.832031 -32.8125 26.15625 -32.40625 C 25.707031 -30.9375 25.273438 -29.359375 24.859375 -27.671875 C 24.441406 -25.984375 24.109375 -24.347656 23.859375 -22.765625 C 23.472656 -23.429688 22.691406 -24.007812 21.515625 -24.5 C 20.335938 -25 19.128906 -25.25 17.890625 -25.25 C 14.328125 -25.25 12.546875 -23.894531 12.546875 -21.1875 L 12.546875 -5.96875 C 12.546875 -4.789062 12.6875 -3.617188 12.96875 -2.453125 C 13.257812 -1.296875 13.675781 -0.476562 14.21875 0 L 1.09375 0 C 1.632812 -0.476562 2.046875 -1.289062 2.328125 -2.4375 C 2.617188 -3.582031 2.765625 -4.742188 2.765625 -5.921875 L 2.765625 -21.71875 C 2.765625 -22.0625 2.734375 -22.597656 2.671875 -23.328125 C 2.609375 -24.066406 2.429688 -24.832031 2.140625 -25.625 C 1.859375 -26.414062 1.398438 -27.097656 0.765625 -27.671875 C 0.128906 -28.242188 -0.757812 -28.53125 -1.90625 -28.53125 Z M -1.90625 -28.78125 "/></g></g></g><g fill="#000000" fill-opacity="1"><g transform="translate(237.06918, 209.228859)"><g><path d="M 1.4375 -16.703125 C 1.4375 -19.054688 1.785156 -21.28125 2.484375 -23.375 C 3.179688 -25.476562 4.238281 -27.332031 5.65625 -28.9375 C 7.070312 -30.539062 8.835938 -31.804688 10.953125 -32.734375 C 13.066406 -33.660156 15.554688 -34.125 18.421875 -34.125 C 20.484375 -34.125 22.28125 -33.84375 23.8125 -33.28125 C 25.34375 -32.726562 26.609375 -32.082031 27.609375 -31.34375 C 28.609375 -30.613281 29.363281 -29.96875 29.875 -29.40625 C 30.382812 -28.851562 30.640625 -28.578125 30.640625 -28.578125 C 29.648438 -27.566406 28.671875 -26.429688 27.703125 -25.171875 C 26.734375 -23.910156 25.878906 -22.722656 25.140625 -21.609375 C 24.640625 -22.722656 23.847656 -23.625 22.765625 -24.3125 C 21.679688 -25 20.488281 -25.34375 19.1875 -25.34375 C 17.71875 -25.34375 16.398438 -24.957031 15.234375 -24.1875 C 14.078125 -23.425781 13.15625 -22.394531 12.46875 -21.09375 C 11.789062 -19.789062 11.453125 -18.328125 11.453125 -16.703125 C 11.453125 -14.285156 12.054688 -12.359375 13.265625 -10.921875 C 14.472656 -9.492188 16.175781 -8.78125 18.375 -8.78125 C 19.550781 -8.78125 20.5625 -9.019531 21.40625 -9.5 C 22.25 -9.976562 22.945312 -10.523438 23.5 -11.140625 C 24.0625 -11.765625 24.453125 -12.28125 24.671875 -12.6875 C 25.460938 -11.445312 26.398438 -10.242188 27.484375 -9.078125 C 28.566406 -7.921875 29.601562 -6.898438 30.59375 -6.015625 C 29.1875 -3.785156 27.347656 -2.101562 25.078125 -0.96875 C 22.804688 0.15625 20.425781 0.71875 17.9375 0.71875 C 15.144531 0.71875 12.703125 0.257812 10.609375 -0.65625 C 8.523438 -1.582031 6.804688 -2.847656 5.453125 -4.453125 C 4.109375 -6.066406 3.101562 -7.921875 2.4375 -10.015625 C 1.769531 -12.117188 1.4375 -14.347656 1.4375 -16.703125 Z M 1.4375 -16.703125 "/></g></g></g><g fill="#000000" fill-opacity="1"><g transform="translate(268.890089, 209.228859)"><g><path d="M 0.484375 -28.671875 C 1.972656 -30.453125 3.765625 -31.804688 5.859375 -32.734375 C 7.960938 -33.660156 10.367188 -34.125 13.078125 -34.125 C 15.367188 -34.125 17.554688 -33.820312 19.640625 -33.21875 C 21.722656 -32.613281 23.570312 -31.703125 25.1875 -30.484375 C 26.8125 -29.273438 28.101562 -27.785156 29.0625 -26.015625 C 30.019531 -24.253906 30.5 -22.195312 30.5 -19.84375 L 30.5 -10.265625 C 30.5 -9.367188 30.578125 -8.472656 30.734375 -7.578125 C 30.890625 -6.691406 31.226562 -5.953125 31.75 -5.359375 C 32.28125 -4.773438 33.117188 -4.484375 34.265625 -4.484375 L 34.265625 -4.25 C 33.335938 -3.769531 32.363281 -3.242188 31.34375 -2.671875 C 30.332031 -2.097656 29.359375 -1.554688 28.421875 -1.046875 C 27.484375 -0.535156 26.65625 -0.113281 25.9375 0.21875 C 25.21875 0.550781 24.71875 0.71875 24.4375 0.71875 C 23.632812 0.71875 22.953125 0.382812 22.390625 -0.28125 C 21.835938 -0.945312 21.414062 -1.78125 21.125 -2.78125 C 20.84375 -3.789062 20.703125 -4.769531 20.703125 -5.71875 L 20.703125 -10.78125 C 20.097656 -9.832031 19.421875 -8.785156 18.671875 -7.640625 C 17.929688 -6.492188 17.21875 -5.378906 16.53125 -4.296875 C 15.851562 -3.210938 15.273438 -2.304688 14.796875 -1.578125 C 14.566406 -1.191406 13.972656 -0.710938 13.015625 -0.140625 C 12.066406 0.429688 10.941406 0.71875 9.640625 0.71875 C 7.671875 0.71875 6.0625 0.320312 4.8125 -0.46875 C 3.570312 -1.269531 2.671875 -2.328125 2.109375 -3.640625 C 1.554688 -4.960938 1.28125 -6.4375 1.28125 -8.0625 C 1.28125 -9.75 1.671875 -11.316406 2.453125 -12.765625 C 3.234375 -14.210938 4.289062 -15.484375 5.625 -16.578125 C 6.96875 -17.679688 8.476562 -18.539062 10.15625 -19.15625 C 11.84375 -19.78125 13.609375 -20.09375 15.453125 -20.09375 C 17.335938 -20.09375 19.007812 -19.757812 20.46875 -19.09375 C 20.050781 -20.96875 19.195312 -22.4375 17.90625 -23.5 C 16.625 -24.5625 15.046875 -25.09375 13.171875 -25.09375 C 11.453125 -25.09375 9.914062 -24.773438 8.5625 -24.140625 C 7.207031 -23.503906 6.085938 -22.503906 5.203125 -21.140625 C 4.441406 -22.628906 3.691406 -23.9375 2.953125 -25.0625 C 2.222656 -26.195312 1.398438 -27.398438 0.484375 -28.671875 Z M 11.453125 -11.734375 C 11.453125 -10.972656 11.707031 -10.257812 12.21875 -9.59375 C 12.726562 -8.925781 13.617188 -8.59375 14.890625 -8.59375 C 16.003906 -8.59375 17.078125 -8.941406 18.109375 -9.640625 C 19.140625 -10.335938 20.003906 -11.289062 20.703125 -12.5 L 20.703125 -16.75 C 20.703125 -17 20.691406 -17.257812 20.671875 -17.53125 C 20.660156 -17.800781 20.640625 -18.050781 20.609375 -18.28125 C 20.328125 -18.4375 20.019531 -18.550781 19.6875 -18.625 C 19.351562 -18.707031 18.992188 -18.75 18.609375 -18.75 C 17.273438 -18.75 16.066406 -18.367188 14.984375 -17.609375 C 13.898438 -16.847656 13.039062 -15.925781 12.40625 -14.84375 C 11.769531 -13.757812 11.453125 -12.722656 11.453125 -11.734375 Z M 11.453125 -11.734375 "/></g></g></g><g fill="#000000" fill-opacity="1"><g transform="translate(301.712612, 209.228859)"><g><path d="M 2.296875 -35.984375 C 2.296875 -36.328125 2.257812 -36.863281 2.1875 -37.59375 C 2.125 -38.332031 1.945312 -39.097656 1.65625 -39.890625 C 1.375 -40.679688 0.914062 -41.363281 0.28125 -41.9375 C -0.351562 -42.507812 -1.242188 -42.796875 -2.390625 -42.796875 L -2.390625 -43.046875 C -1.210938 -43.109375 0.0507812 -43.320312 1.40625 -43.6875 C 2.757812 -44.050781 4.09375 -44.507812 5.40625 -45.0625 C 6.726562 -45.625 7.96875 -46.195312 9.125 -46.78125 C 10.289062 -47.375 11.273438 -47.910156 12.078125 -48.390625 L 12.078125 -13.453125 C 12.078125 -11.296875 12.394531 -9.847656 13.03125 -9.109375 C 13.664062 -8.378906 14.570312 -8.015625 15.75 -8.015625 C 16.476562 -8.015625 17.128906 -8.15625 17.703125 -8.4375 C 18.273438 -8.726562 18.785156 -9.128906 19.234375 -9.640625 C 19.390625 -8.203125 19.640625 -6.816406 19.984375 -5.484375 C 20.335938 -4.148438 20.644531 -2.941406 20.90625 -1.859375 C 20.101562 -1.097656 18.984375 -0.476562 17.546875 0 C 16.117188 0.476562 14.644531 0.71875 13.125 0.71875 C 9.5625 0.71875 6.875 -0.320312 5.0625 -2.40625 C 3.25 -4.488281 2.34375 -7.457031 2.34375 -11.3125 C 2.34375 -11.3125 2.34375 -11.734375 2.34375 -12.578125 C 2.34375 -13.421875 2.34375 -14.539062 2.34375 -15.9375 C 2.34375 -17.332031 2.34375 -18.878906 2.34375 -20.578125 C 2.34375 -22.285156 2.332031 -24 2.3125 -25.71875 C 2.300781 -27.4375 2.296875 -29.035156 2.296875 -30.515625 C 2.296875 -31.992188 2.296875 -33.222656 2.296875 -34.203125 C 2.296875 -35.191406 2.296875 -35.785156 2.296875 -35.984375 Z M 2.296875 -35.984375 "/></g></g></g><g fill="#000000" fill-opacity="1"><g transform="translate(321.176863, 209.228859)"><g><path d="M 2.296875 -35.984375 C 2.296875 -36.328125 2.257812 -36.863281 2.1875 -37.59375 C 2.125 -38.332031 1.945312 -39.097656 1.65625 -39.890625 C 1.375 -40.679688 0.914062 -41.363281 0.28125 -41.9375 C -0.351562 -42.507812 -1.242188 -42.796875 -2.390625 -42.796875 L -2.390625 -43.046875 C -1.210938 -43.109375 0.0507812 -43.320312 1.40625 -43.6875 C 2.757812 -44.050781 4.09375 -44.507812 5.40625 -45.0625 C 6.726562 -45.625 7.96875 -46.195312 9.125 -46.78125 C 10.289062 -47.375 11.273438 -47.910156 12.078125 -48.390625 L 12.078125 -13.453125 C 12.078125 -11.296875 12.394531 -9.847656 13.03125 -9.109375 C 13.664062 -8.378906 14.570312 -8.015625 15.75 -8.015625 C 16.476562 -8.015625 17.128906 -8.15625 17.703125 -8.4375 C 18.273438 -8.726562 18.785156 -9.128906 19.234375 -9.640625 C 19.390625 -8.203125 19.640625 -6.816406 19.984375 -5.484375 C 20.335938 -4.148438 20.644531 -2.941406 20.90625 -1.859375 C 20.101562 -1.097656 18.984375 -0.476562 17.546875 0 C 16.117188 0.476562 14.644531 0.71875 13.125 0.71875 C 9.5625 0.71875 6.875 -0.320312 5.0625 -2.40625 C 3.25 -4.488281 2.34375 -7.457031 2.34375 -11.3125 C 2.34375 -11.3125 2.34375 -11.734375 2.34375 -12.578125 C 2.34375 -13.421875 2.34375 -14.539062 2.34375 -15.9375 C 2.34375 -17.332031 2.34375 -18.878906 2.34375 -20.578125 C 2.34375 -22.285156 2.332031 -24 2.3125 -25.71875 C 2.300781 -27.4375 2.296875 -29.035156 2.296875 -30.515625 C 2.296875 -31.992188 2.296875 -33.222656 2.296875 -34.203125 C 2.296875 -35.191406 2.296875 -35.785156 2.296875 -35.984375 Z M 2.296875 -35.984375 "/></g></g></g></svg>