<svg xmlns="http://www.w3.org/2000/svg" xmlns:xlink="http://www.w3.org/1999/xlink" width="500" zoomAndPan="magnify" viewBox="0 0 375 374.999991" height="500" preserveAspectRatio="xMidYMid meet" version="1.0"><defs><g/></defs><g fill="#000000" fill-opacity="1"><g transform="translate(105.168132, 254.991202)"><g><path d="M 159.515625 -145.59375 C 156.140625 -134.238281 153.46875 -122.253906 151.5 -109.640625 C 149.53125 -97.035156 148.546875 -83.851562 148.546875 -70.09375 C 148.546875 -57.757812 149.363281 -45.640625 151 -33.734375 C 152.644531 -21.835938 155.320312 -10.59375 159.03125 0 C 156.40625 0.4375 153.238281 0.816406 149.53125 1.140625 C 145.820312 1.472656 142.273438 1.691406 138.890625 1.796875 C 135.503906 1.910156 132.882812 1.96875 131.03125 1.96875 C 117.375 1.96875 106.257812 0.984375 97.6875 -0.984375 C 89.125 -2.953125 82.847656 -6.253906 78.859375 -10.890625 C 74.867188 -15.535156 72.875 -21.894531 72.875 -29.96875 C 72.875 -31.175781 72.925781 -32.320312 73.03125 -33.40625 C 73.144531 -34.5 73.257812 -35.59375 73.375 -36.6875 L 69.109375 -36.6875 C 67.472656 -28.9375 64.363281 -22.164062 59.78125 -16.375 C 55.195312 -10.59375 49.597656 -6.085938 42.984375 -2.859375 C 36.378906 0.359375 29.257812 1.96875 21.625 1.96875 C 18.894531 1.96875 15.78125 1.75 12.28125 1.3125 C 8.789062 0.875 5.789062 0.4375 3.28125 0 C 6.664062 -11.03125 9.285156 -22.957031 11.140625 -35.78125 C 12.992188 -48.613281 13.921875 -61.910156 13.921875 -75.671875 C 13.921875 -88.003906 13.101562 -100.117188 11.46875 -112.015625 C 9.832031 -123.921875 7.15625 -135.113281 3.4375 -145.59375 L 49.625 -145.59375 C 52.90625 -139.269531 55.253906 -133.296875 56.671875 -127.671875 C 58.085938 -122.046875 58.796875 -116.664062 58.796875 -111.53125 C 58.796875 -103.675781 57.429688 -96.472656 54.703125 -89.921875 C 51.972656 -83.367188 48.671875 -77.441406 44.796875 -72.140625 C 40.921875 -66.847656 37.179688 -62.019531 33.578125 -57.65625 C 30.515625 -53.9375 27.921875 -50.601562 25.796875 -47.65625 C 23.671875 -44.707031 22.609375 -41.816406 22.609375 -38.984375 C 22.609375 -36.578125 23.234375 -34.851562 24.484375 -33.8125 C 25.742188 -32.78125 27.300781 -32.265625 29.15625 -32.265625 C 32.101562 -32.265625 35.734375 -33.082031 40.046875 -34.71875 C 44.359375 -36.351562 48.832031 -38.804688 53.46875 -42.078125 C 58.113281 -45.359375 62.457031 -49.535156 66.5 -54.609375 C 70.539062 -59.691406 73.816406 -65.671875 76.328125 -72.546875 C 78.835938 -79.429688 80.09375 -87.238281 80.09375 -95.96875 C 80.09375 -103.394531 79.082031 -111.253906 77.0625 -119.546875 C 75.039062 -127.847656 71.679688 -136.53125 66.984375 -145.59375 L 107.4375 -145.59375 C 110.0625 -140.570312 112.21875 -135.164062 113.90625 -129.375 C 115.601562 -123.59375 116.453125 -117.644531 116.453125 -111.53125 C 116.453125 -103.675781 115.085938 -96.472656 112.359375 -89.921875 C 109.628906 -83.367188 106.320312 -77.441406 102.4375 -72.140625 C 98.5625 -66.847656 94.820312 -62.019531 91.21875 -57.65625 C 88.164062 -53.9375 85.570312 -50.601562 83.4375 -47.65625 C 81.3125 -44.707031 80.25 -41.816406 80.25 -38.984375 C 80.25 -36.578125 80.875 -34.851562 82.125 -33.8125 C 83.382812 -32.78125 85 -32.265625 86.96875 -32.265625 C 89.914062 -32.265625 93.546875 -33.082031 97.859375 -34.71875 C 102.171875 -36.351562 106.617188 -38.804688 111.203125 -42.078125 C 115.796875 -45.359375 120.109375 -49.535156 124.140625 -54.609375 C 128.179688 -59.691406 131.457031 -65.671875 133.96875 -72.546875 C 136.476562 -79.429688 137.734375 -87.238281 137.734375 -95.96875 C 137.734375 -103.394531 136.671875 -111.066406 134.546875 -118.984375 C 132.421875 -126.898438 128.789062 -135.769531 123.65625 -145.59375 Z M 159.515625 -145.59375 "/></g></g></g></svg>